<svg xmlns="http://www.w3.org/2000/svg" viewBox="0 0 32 32" id="gym-time">
  <path d="M21.5,15.5H17.4079a1.49809,1.49809,0,0,0-.9079-.9079V8.5a.5.5,0,0,0-1,0v6.0921A1.4963,1.4963,0,1,0,17.4079,16.5H21.5a.5.5,0,0,0,0-1Zm-5.5,1a.5.5,0,1,1,.5-.5A.50065.50065,0,0,1,16,16.5ZM32,16A16,16,0,1,0,3.0155,25.34656,1.46262,1.46262,0,0,0,3,25.5v1A1.50164,1.50164,0,0,0,4.5,28H5v1.08594A1.91591,1.91591,0,0,0,6.91406,31h.17188a1.897,1.897,0,0,0,1.01563-.298A1.87648,1.87648,0,0,0,9.87988,32h.24023A1.88226,1.88226,0,0,0,12,30.12012V28h8v2.12012A1.88226,1.88226,0,0,0,21.87988,32h.24023a1.87648,1.87648,0,0,0,1.77832-1.298A1.897,1.897,0,0,0,24.91406,31h.17188A1.91591,1.91591,0,0,0,27,29.08594V28h.5A1.50164,1.50164,0,0,0,29,26.5v-1a1.46262,1.46262,0,0,0-.0155-.15344A15.88755,15.88755,0,0,0,32,16ZM5,27H4.5a.50065.50065,0,0,1-.5-.5v-1a.50065.50065,0,0,1,.5-.5H5Zm3,2.08594A.91524.91524,0,0,1,7.08594,30H6.91406A.91524.91524,0,0,1,6,29.08594V23.91406A.91524.91524,0,0,1,6.91406,23h.17188A.91524.91524,0,0,1,8,23.91406Zm3,1.03418A.88064.88064,0,0,1,10.12012,31H9.87988A.88064.88064,0,0,1,9,30.12012V21.87988A.88064.88064,0,0,1,9.87988,21h.24023A.88064.88064,0,0,1,11,21.87988ZM20,27H12V25h8Zm3-3.08594v6.20605A.88064.88064,0,0,1,22.12012,31h-.24023A.88064.88064,0,0,1,21,30.12012V21.87988A.88064.88064,0,0,1,21.87988,21h.24023A.88064.88064,0,0,1,23,21.87988Zm3,5.17188A.91524.91524,0,0,1,25.08594,30h-.17187A.91524.91524,0,0,1,24,29.08594V23.91406A.91524.91524,0,0,1,24.91406,23h.17188A.91524.91524,0,0,1,26,23.91406Zm.17871-6.7395A1.90021,1.90021,0,0,0,25.08594,22h-.17187A1.89,1.89,0,0,0,24,22.2428v-.36292A1.88226,1.88226,0,0,0,22.12012,20h-.24023A1.88226,1.88226,0,0,0,20,21.87988V24H12V21.87988A1.88226,1.88226,0,0,0,10.12012,20H9.87988A1.88226,1.88226,0,0,0,8,21.87988v.36292A1.89,1.89,0,0,0,7.08594,22H6.91406a1.90021,1.90021,0,0,0-1.09277.34644A11.947,11.947,0,0,1,4.01886,16.5H5.5a.5.5,0,0,0,0-1H4.02435A11.89051,11.89051,0,0,1,7.17743,7.88446L8.22168,8.92871a.49995.49995,0,0,0,.707-.707L7.8844,7.17737A11.8883,11.8883,0,0,1,15.5,4.02435V5.5a.5.5,0,0,0,1,0V4.02435a11.8883,11.8883,0,0,1,7.6156,3.153L23.07129,8.22168a.49995.49995,0,1,0,.707.707l1.04425-1.04425A11.89051,11.89051,0,0,1,27.97565,15.5H26.5a.5.5,0,0,0,0,1h1.48114A11.947,11.947,0,0,1,26.17871,22.34644ZM28,26.5a.50065.50065,0,0,1-.5.5H27V25h.5a.50065.50065,0,0,1,.5.5Zm.4538-2.148A1.48526,1.48526,0,0,0,27.5,24H27v-.08594a1.90188,1.90188,0,0,0-.15625-.75476,13,13,0,1,0-21.6875,0A1.90166,1.90166,0,0,0,5,23.91406V24H4.5a1.48526,1.48526,0,0,0-.9538.352A14.99794,14.99794,0,1,1,31,16,14.89656,14.89656,0,0,1,28.4538,24.352Z"></path>
</svg>
